<?xml version="1.0" encoding="UTF-8"?><svg id="_イヤー_2" xmlns="http://www.w3.org/2000/svg" viewBox="0 0 152.21 34.16"><defs><style>.cls-1{fill:#6f8ec6;}</style></defs><g id="_イヤー_1-2"><g><path class="cls-1" d="M14.04,.47l9.14,26.06h-4.61l-2.45-7.13H6.66l-2.38,7.13H0L8.68,.47h5.36Zm-2.66,3.89h-.07l-3.82,11.52h7.67l-3.78-11.52Z"/><path class="cls-1" d="M25.63,17.46c0-6.44,3.38-9.93,9.21-9.93,4.1,0,7.02,2.41,7.34,6.8l-3.82,.54c-.29-2.45-1.3-4.03-3.71-4.03s-4.72,1.22-4.72,6.16,2.02,6.59,4.61,6.59c2.3,0,3.67-1.12,4.1-3.71l3.6,.72c-.61,4.46-3.92,6.37-7.92,6.37-6.16,0-8.71-3.96-8.71-9.5Z"/><path class="cls-1" d="M45.11,17.24c0-6.73,4.03-9.72,8.89-9.72,5.4,0,7.63,3.42,7.63,8.24,0,.76-.04,1.62-.11,2.48h-12.06c.11,3.92,1.98,5.33,4.68,5.33,2.38,0,3.38-1.12,3.82-3.02l3.53,.86c-.72,3.53-3.56,5.54-7.6,5.54-6.69,0-8.78-4.61-8.78-9.72Zm12.24-1.87c0-3.17-1.12-4.57-3.6-4.57-2.09,0-4.03,1.26-4.21,4.57h7.81Z"/><path class="cls-1" d="M69.44,6.95c0,2.81,2.77,3.67,5.83,4.57,3.82,1.12,8.1,2.34,8.1,7.56,0,5.65-4.54,7.88-9.5,7.88s-9.14-1.84-9.72-7.74l3.89-.58c.58,2.66,1.69,4.97,5.9,4.97,2.59,0,5.22-.86,5.22-3.96,0-2.92-2.74-3.71-5.8-4.54-3.85-1.04-8.13-2.2-8.13-7.67,0-4.72,3.92-7.45,9.07-7.45,4.57,0,8.35,1.69,8.85,7.49l-3.89,.47c-.36-2.48-1.37-4.54-5-4.54-3.42,0-4.82,1.44-4.82,3.53Z"/><path class="cls-1" d="M90.58,26.53l-5.69-18.61h4.18l4.07,14.33h.04l3.74-14.33h4.18l3.74,14.25h.04l3.96-14.25h4.03l-5.69,18.61h-4.75l-3.49-13.64h-.07l-3.35,13.64h-4.93Z"/><path class="cls-1" d="M129.71,22.61c0,1.01,.18,1.44,1.12,1.44,.32,0,.65-.07,1.12-.22l.14,2.45c-.72,.36-1.91,.61-2.92,.61-1.94,0-2.81-.76-3.13-2.2-1.26,1.37-3.31,2.27-5.9,2.27-4.68,0-5.51-3.17-5.51-5,0-4.82,4.1-6.41,9.11-6.41,.86,0,1.4,.04,1.91,.07v-1.4c0-2.27-.5-3.56-3.24-3.56-2.27,0-3.02,.94-3.42,2.88l-3.64-.65c.58-3.49,2.81-5.36,7.38-5.36s6.98,1.84,6.98,6.48v8.6Zm-4.03-4.14c-.36-.04-.79-.07-1.73-.07-2.09,0-5.11,.25-5.11,2.99,0,1.3,.58,2.48,2.77,2.48,1.69,0,3.24-.86,4.07-1.73v-3.67Z"/><path class="cls-1" d="M135.32,7.92h3.56l.22,1.98c1.66-1.55,3.78-2.38,6.23-2.38,3.92,0,6.88,2.45,6.88,9.25,0,7.34-3.53,10.19-7.7,10.19-2.23,0-3.89-.76-5.18-1.8v9h-4V7.92Zm4.1,14c.72,.58,2.38,1.66,4.18,1.66,3.13,0,4.28-2.63,4.28-6.73s-1.3-5.94-3.92-5.94c-1.76,0-3.53,1.04-4.54,1.98v9.03Z"/></g></g></svg>