<?xml version="1.0" encoding="UTF-8"?><svg id="_イヤー_2" xmlns="http://www.w3.org/2000/svg" viewBox="0 0 642.01 111.28"><defs><style>.cls-1{fill:#fff;}.cls-2{fill:#fbff9c;}.cls-3{fill:#abe2ff;}</style></defs><g id="LogoType_LogoMark"><g id="Type_and_Mark"><g id="Mark"><g id="Yellow_02"><path id="Surface" class="cls-2" d="M41.13,.6c-5.61,0-10.15,4.55-10.15,10.15s4.55,10.15,10.15,10.15h0c15.7,0,28.43,12.77,28.43,28.51h0c0,7.1-4.31,13.19-10.45,15.78-.13,.06-.27,.12-.42,.17-.41,.14-.86,.22-1.32,.22-.81,0-1.57-.24-2.2-.65,6.57,4.49,15.53,4.49,22.18-.62h0c13.46-10.33,15.99-29.62,5.65-43.08h0C73.36,8.69,58.19,.6,41.13,.6Z"/><path id="Outline" d="M65.83,68.84c-3.83,0-7.67-1.13-11-3.41-.27-.19-.34-.55-.16-.83,.18-.27,.55-.35,.82-.17,.88,.57,2.01,.71,3,.37,.12-.04,.24-.09,.35-.14,6.15-2.59,10.11-8.57,10.11-15.24,0-15.39-12.49-27.91-27.83-27.92-2.87,0-5.57-1.12-7.6-3.15-2.03-2.03-3.15-4.73-3.15-7.6,0-5.93,4.82-10.75,10.75-10.75,16.71,0,32.15,7.61,42.35,20.87,10.52,13.7,7.93,33.4-5.76,43.92-3.51,2.69-7.69,4.05-11.89,4.05Zm-7.41-2.77c6.05,2.69,13.17,1.92,18.57-2.23h.02c13.16-10.13,15.64-29.07,5.53-42.24C72.56,8.64,57.47,1.2,41.13,1.2c-5.27,0-9.56,4.29-9.56,9.56s4.29,9.56,9.56,9.56c16.01,0,29.03,13.06,29.03,29.11,0,7.15-4.25,13.56-10.82,16.33-.13,.06-.29,.13-.46,.18-.15,.05-.31,.1-.47,.13Zm18.93-1.75h0Z"/></g><g id="Blue_02"><path id="Surface-2" class="cls-3" d="M61.44,106.2c5.61,0,10.15-4.55,10.15-10.15s-4.55-10.15-10.15-10.15h0c-15.7,0-28.43-12.77-28.43-28.51h0c0-7.1,4.31-13.19,10.45-15.78,.13-.06,.27-.12,.42-.17,.41-.14,.86-.22,1.32-.22,.81,0,1.57,.24,2.2,.65-6.57-4.49-15.53-4.49-22.18,.62h0c-13.46,10.33-15.99,29.62-5.65,43.08h0c9.65,12.55,24.82,20.64,41.88,20.64Z"/><path id="Outline-2" d="M61.44,106.8c-16.71,0-32.15-7.61-42.35-20.87h0c-10.52-13.71-7.93-33.41,5.76-43.93,6.71-5.15,15.91-5.41,22.89-.64,.27,.19,.34,.55,.16,.83-.18,.27-.55,.35-.82,.17-.88-.57-2.01-.71-3-.37-.12,.04-.24,.09-.35,.14-6.15,2.59-10.11,8.57-10.11,15.24,0,15.39,12.49,27.91,27.83,27.92,2.87,0,5.57,1.12,7.6,3.15,2.03,2.03,3.15,4.73,3.15,7.6,0,5.93-4.82,10.75-10.75,10.75Zm-41.41-21.61h.01c9.97,12.98,25.06,20.41,41.4,20.41,5.27,0,9.56-4.29,9.56-9.56s-4.29-9.56-9.56-9.56c-16.01,0-29.03-13.06-29.03-29.11,0-7.15,4.25-13.56,10.82-16.33,.13-.06,.29-.13,.45-.18,.15-.05,.31-.1,.47-.13-6.05-2.69-13.17-1.92-18.57,2.23h-.02c-13.16,10.13-15.64,29.06-5.53,42.23Z"/></g><g id="Yellow_01"><path id="Surface-3" class="cls-2" d="M83.05,21.29l-.04-.06c-2.05-2.67-1.54-6.49,1.12-8.54s6.49-1.54,8.54,1.12c15.14,19.72,11.43,47.99-8.29,63.13h0c-1.31,.93-1.81,1.16-2.52,1.72,.7-.56,1.59-.9,2.55-.9,2.24,0,4.06,1.82,4.06,4.06,0,1.28-.59,2.41-1.51,3.16h0c-12.95,10.47-31.93,8.45-42.4-4.5h0c-4.76-5.89-5.39-13.78-2.26-20.16,1.96-4.1,6.15-6.93,11-6.93,4.49,0,8.12,3.64,8.12,8.12,0,1.62-.95,3.02-2.33,3.67-.13,.06-.27,.12-.42,.17-.41,.14-.86,.22-1.32,.22-.81,0-1.57-.24-2.2-.65,6.57,4.49,15.53,4.49,22.18-.62h0c13.46-10.33,15.99-29.62,5.65-43.08"/><path id="Outline-3" d="M93.15,13.46c-1.09-1.42-2.66-2.33-4.43-2.56-1.77-.23-3.53,.24-4.95,1.33-1.42,1.09-2.33,2.66-2.56,4.43-.23,1.77,.24,3.53,1.33,4.95l.02,.03c10.09,13.17,7.6,32.08-5.55,42.2h-.02c-5.4,4.16-12.52,4.93-18.57,2.24,.16-.04,.31-.08,.47-.13,.16-.06,.32-.12,.48-.19,1.62-.77,2.67-2.42,2.67-4.22,0-4.81-3.91-8.72-8.72-8.72s-9.43,2.86-11.54,7.27c-3.32,6.77-2.41,14.94,2.32,20.78l.02,.03c6.07,7.5,14.96,11.4,23.93,11.4,6.79,0,13.62-2.23,19.3-6.82,1.1-.89,1.73-2.21,1.73-3.62,0-2.36-1.77-4.32-4.05-4.62,19.71-15.37,23.37-43.9,8.12-63.76Zm-9.09,62.99s-.02,.02-.04,.03c-.6,.43-1.02,.7-1.39,.94-.38,.24-.68,.44-1.03,.71-.04,.03-.08,.06-.11,.09-.26,.21-.3,.58-.09,.84,.21,.26,.58,.3,.84,.09,.03-.03,.07-.05,.1-.08,.6-.45,1.32-.69,2.08-.69,1.91,0,3.46,1.55,3.46,3.46,0,1.05-.47,2.03-1.29,2.69-12.67,10.24-31.31,8.26-41.55-4.41h0c-4.44-5.51-5.3-13.17-2.18-19.53,1.92-4,6.02-6.59,10.46-6.59,4.15,0,7.52,3.38,7.52,7.52,0,1.33-.78,2.56-1.99,3.13-.12,.05-.23,.1-.35,.14-.99,.34-2.12,.2-3-.37h0c-.06-.04-.12-.08-.18-.13-.89-.66-1.4-1.67-1.4-2.78,0-.33-.27-.6-.6-.6s-.6,.27-.6,.6c0,1.47,.7,2.87,1.89,3.75,.08,.06,.15,.11,.23,.16h.02c6.98,4.77,16.17,4.51,22.87-.64,13.67-10.5,16.27-30.15,5.82-43.85l-.02-.02-.02-.02-.02-.03h-.01c-.89-1.18-1.27-2.61-1.08-4.06,.19-1.45,.94-2.75,2.1-3.64,1.16-.89,2.6-1.28,4.06-1.09,1.45,.19,2.75,.94,3.64,2.1,14.9,19.41,11.26,47.31-8.14,62.26Z"/></g><g id="Blue_01"><path id="Surface-4" class="cls-3" d="M19.52,85.51l.04,.06c2.05,2.67,1.54,6.49-1.12,8.54-2.67,2.05-6.49,1.54-8.54-1.12C-5.25,73.26-1.54,45,18.18,29.85h0c1.31-.93,1.81-1.16,2.52-1.72-.7,.56-1.59,.9-2.55,.9-2.24,0-4.06-1.82-4.06-4.06,0-1.28,.59-2.41,1.51-3.16h0c12.95-10.47,31.93-8.45,42.4,4.5h0c4.76,5.89,5.39,13.78,2.26,20.16-1.96,4.1-6.15,6.93-11,6.93-4.49,0-8.12-3.64-8.12-8.12,0-1.62,.95-3.02,2.33-3.67,.13-.06,.27-.12,.42-.17,.41-.14,.86-.22,1.32-.22,.81,0,1.57,.24,2.2,.65-6.57-4.49-15.53-4.49-22.18,.62h0c-13.46,10.33-15.99,29.62-5.65,43.08"/><path id="Outline-4" d="M58.46,25.93c-10.66-13.18-30.05-15.24-43.24-4.58-1.1,.89-1.73,2.21-1.73,3.62,0,2.36,1.77,4.32,4.05,4.62C-2.17,44.96-5.83,73.49,9.42,93.35c1.32,1.71,3.31,2.62,5.32,2.62,1.42,0,2.85-.45,4.07-1.38,2.93-2.25,3.48-6.45,1.22-9.41h0c-10.09-13.18-7.6-32.09,5.55-42.2h.02c5.4-4.16,12.52-4.93,18.57-2.24-.16,.04-.31,.08-.47,.13-.16,.06-.32,.12-.48,.19-1.62,.77-2.67,2.42-2.67,4.22,0,4.81,3.91,8.72,8.72,8.72s9.43-2.86,11.54-7.27c3.32-6.77,2.41-14.94-2.33-20.8Zm1.25,20.28c-1.92,4-6.02,6.59-10.46,6.59-4.15,0-7.52-3.38-7.52-7.52,0-1.33,.78-2.56,1.99-3.13,.11-.05,.23-.1,.35-.14,.99-.34,2.12-.2,3,.37h0c.06,.04,.12,.08,.18,.13,.89,.66,1.4,1.67,1.4,2.78,0,.33,.27,.6,.6,.6s.6-.27,.6-.6c0-1.47-.7-2.87-1.89-3.74-.08-.06-.15-.11-.23-.16h-.02c-6.98-4.77-16.17-4.51-22.87,.64-13.67,10.5-16.27,30.15-5.82,43.85l.02,.02,.02,.02,.02,.03h.01c1.83,2.42,1.38,5.86-1.02,7.7-2.4,1.84-5.86,1.39-7.7-1.01C-4.53,73.21-.89,45.3,18.51,30.35c.01,0,.03-.02,.04-.03,.6-.43,1.02-.7,1.39-.93,.37-.24,.68-.44,1.03-.7,.04-.03,.08-.06,.12-.09,.26-.21,.3-.58,.09-.84-.21-.26-.58-.3-.84-.09-.04,.03-.07,.06-.1,.08-.6,.45-1.32,.69-2.08,.69-1.91,0-3.46-1.55-3.46-3.46,0-1.05,.47-2.03,1.29-2.69,12.67-10.24,31.31-8.26,41.55,4.41,4.45,5.5,5.31,13.17,2.18,19.52Z"/></g></g><g id="YomiSwap_Type"><g id="Y"><path class="cls-1" d="M183.58,36.44c0,.92-.15,1.82-.45,2.69-.3,.87-.69,1.63-1.18,2.28l-17.68,24.12v18.66c0,1.25-.23,2.36-.69,3.34-.46,.98-1.07,1.83-1.83,2.57-.76,.73-1.62,1.29-2.57,1.67-.95,.38-1.94,.57-2.97,.57h-.65c-1.09,0-2.12-.19-3.1-.57-.98-.38-1.83-.94-2.57-1.67-.73-.73-1.33-1.59-1.79-2.57-.46-.98-.69-2.09-.69-3.34v-18.66l-17.44-24.29c-.98-1.3-1.47-2.91-1.47-4.81,0-1.14,.22-2.23,.65-3.26,.43-1.03,1.02-1.94,1.75-2.73,.73-.79,1.6-1.41,2.61-1.87,1-.46,2.08-.69,3.22-.69,1.3,0,2.58,.33,3.83,.98,1.25,.65,2.25,1.49,3.02,2.53l12.39,17.11c.81-1.14,1.75-2.46,2.81-3.95,1.06-1.49,2.16-3.03,3.3-4.6,1.14-1.58,2.24-3.1,3.3-4.56,1.06-1.47,2-2.77,2.81-3.91,.81-1.14,1.82-2.01,3.02-2.61,1.19-.6,2.47-.9,3.83-.9,1.14,0,2.23,.23,3.26,.69,1.03,.46,1.94,1.09,2.73,1.87,.79,.79,1.41,1.7,1.87,2.73,.46,1.03,.69,2.09,.69,3.18Z"/><path d="M156.19,92.95h-.65c-1.15,0-2.27-.21-3.31-.61-1.05-.41-1.98-1.01-2.77-1.81-.78-.78-1.42-1.7-1.91-2.74-.5-1.05-.75-2.26-.75-3.6v-18.47l-17.33-24.13c-1.05-1.39-1.58-3.13-1.58-5.16,0-1.22,.24-2.39,.7-3.49,.46-1.09,1.09-2.07,1.87-2.91,.78-.84,1.73-1.52,2.8-2.01,1.08-.5,2.25-.75,3.47-.75,1.39,0,2.78,.35,4.11,1.05,1.32,.69,2.41,1.6,3.22,2.7l11.9,16.44c.7-.98,1.47-2.07,2.33-3.27,1.03-1.45,2.14-3,3.3-4.61,1.14-1.57,2.24-3.1,3.3-4.56,1.06-1.47,2-2.77,2.81-3.91,.87-1.21,1.96-2.16,3.23-2.8,1.27-.64,2.65-.96,4.1-.96,1.22,0,2.4,.25,3.5,.74,1.09,.49,2.07,1.16,2.91,2,.84,.84,1.51,1.82,2,2.91,.49,1.11,.75,2.26,.75,3.42,0,.98-.16,1.95-.48,2.88-.32,.93-.75,1.75-1.27,2.45l-17.56,23.96v18.47c0,1.33-.25,2.54-.75,3.6-.49,1.04-1.15,1.96-1.96,2.74-.82,.79-1.74,1.39-2.76,1.8-1.02,.41-2.1,.61-3.2,.61Zm-19.48-64.46c-1.05,0-2.05,.21-2.97,.64-.93,.43-1.74,1.01-2.42,1.74-.68,.73-1.23,1.59-1.64,2.55-.4,.95-.61,1.97-.61,3.03,0,1.76,.45,3.26,1.35,4.45l17.56,24.45v18.86c0,1.16,.21,2.19,.64,3.09,.43,.91,.99,1.72,1.67,2.4,.67,.67,1.47,1.19,2.36,1.54,.91,.35,1.87,.53,2.88,.53h.65c.95,0,1.87-.18,2.75-.53,.87-.35,1.67-.87,2.37-1.55,.7-.68,1.28-1.48,1.71-2.39,.42-.89,.64-1.93,.64-3.09v-18.86l17.8-24.28c.45-.6,.82-1.32,1.1-2.12,.28-.8,.42-1.64,.42-2.49,0-.99-.22-1.98-.64-2.93-.43-.96-1.02-1.82-1.75-2.55-.73-.73-1.59-1.32-2.55-1.75-.95-.42-1.97-.64-3.01-.64-1.26,0-2.46,.28-3.56,.83-1.1,.55-2.04,1.37-2.8,2.42-.82,1.14-1.75,2.45-2.81,3.91-1.06,1.47-2.16,2.99-3.3,4.56-1.16,1.6-2.27,3.15-3.3,4.6-1.06,1.5-2,2.81-2.81,3.95l-.48,.68-12.88-17.79c-.7-.95-1.65-1.74-2.81-2.35-1.16-.6-2.35-.91-3.55-.91Z"/></g><g id="o"><path class="cls-1" d="M242.98,68.63c0,3.21-.53,6.26-1.59,9.17-1.06,2.91-2.65,5.46-4.77,7.66-2.12,2.2-4.8,3.97-8.03,5.3-3.23,1.33-7.05,2-11.45,2s-8.22-.67-11.45-2c-3.23-1.33-5.91-3.1-8.03-5.3-2.12-2.2-3.71-4.75-4.77-7.66-1.06-2.91-1.59-5.96-1.59-9.17s.52-6.19,1.55-9.13c1.03-2.93,2.62-5.51,4.77-7.74,2.15-2.23,4.83-4.01,8.07-5.34,3.23-1.33,7.05-2,11.45-2s8.23,.67,11.49,2c3.26,1.33,5.95,3.11,8.07,5.34,2.12,2.23,3.69,4.8,4.73,7.7,1.03,2.91,1.55,5.96,1.55,9.17Zm-16.95,0c0-2.12-.72-3.97-2.16-5.54-1.44-1.58-3.68-2.36-6.72-2.36s-5.28,.79-6.72,2.36c-1.44,1.58-2.16,3.42-2.16,5.54s.72,3.89,2.16,5.46c1.44,1.58,3.68,2.36,6.72,2.36s5.28-.79,6.72-2.36c1.44-1.58,2.16-3.39,2.16-5.46Z"/><path d="M217.15,93.35c-4.46,0-8.39-.69-11.68-2.04-3.29-1.36-6.06-3.18-8.23-5.44-2.17-2.25-3.82-4.9-4.9-7.87-1.08-2.96-1.63-6.11-1.63-9.37s.53-6.34,1.58-9.33c1.05-3,2.7-5.68,4.9-7.96,2.19-2.28,4.97-4.12,8.27-5.48,3.29-1.35,7.22-2.04,11.68-2.04s8.4,.69,11.72,2.04c3.32,1.36,6.11,3.2,8.28,5.48,2.17,2.28,3.8,4.94,4.86,7.91,1.05,2.96,1.58,6.11,1.58,9.37s-.55,6.42-1.63,9.37c-1.08,2.97-2.73,5.62-4.9,7.87-2.17,2.25-4.94,4.08-8.23,5.44-3.29,1.35-7.22,2.04-11.68,2.04Zm0-48.33c-4.3,0-8.08,.66-11.22,1.95-3.14,1.29-5.79,3.04-7.86,5.2-2.08,2.16-3.64,4.69-4.63,7.53-1,2.86-1.51,5.86-1.51,8.93s.52,6.14,1.55,8.96c1.03,2.81,2.59,5.32,4.64,7.45,2.05,2.13,4.68,3.87,7.82,5.16,3.15,1.29,6.92,1.95,11.22,1.95s8.08-.66,11.22-1.95c3.14-1.29,5.77-3.03,7.82-5.16,2.05-2.13,3.61-4.64,4.64-7.45,1.03-2.83,1.55-5.84,1.55-8.96s-.51-6.14-1.51-8.97c-1-2.81-2.55-5.33-4.6-7.49-2.05-2.15-4.69-3.9-7.86-5.2-3.17-1.3-6.96-1.95-11.26-1.95Zm0,32.03c-3.21,0-5.62-.86-7.17-2.56-1.54-1.68-2.32-3.65-2.32-5.86s.78-4.26,2.32-5.95c1.55-1.7,3.96-2.56,7.17-2.56s5.61,.86,7.17,2.56c1.54,1.68,2.32,3.68,2.32,5.95s-.78,4.18-2.32,5.86c-1.55,1.7-3.96,2.56-7.17,2.56Zm0-15.73c-2.85,0-4.97,.73-6.28,2.17-1.35,1.47-2,3.16-2,5.14s.65,3.58,2,5.06c1.31,1.44,3.43,2.17,6.28,2.17s4.97-.73,6.28-2.17c1.35-1.48,2-3.13,2-5.06s-.66-3.66-2-5.14c-1.32-1.44-3.43-2.17-6.28-2.17Z"/></g><g id="m"><path class="cls-1" d="M324.4,90.06c-1.58,1.52-3.48,2.28-5.7,2.28h-.49c-2.23,0-4.12-.77-5.66-2.32-1.55-1.55-2.32-3.49-2.32-5.83v-19.4c0-.76-.22-1.55-.65-2.36-.44-.81-1.44-1.22-3.02-1.22-1.41,0-2.61,.39-3.59,1.18-.98,.79-1.47,1.78-1.47,2.97v18.83c0,2.39-.79,4.35-2.36,5.87-1.58,1.52-3.5,2.28-5.79,2.28h-.41c-1.14,0-2.2-.2-3.18-.61-.98-.41-1.83-.98-2.57-1.71s-1.32-1.6-1.75-2.61c-.44-1-.65-2.08-.65-3.22v-19.97c0-.71-.27-1.41-.82-2.12-.54-.71-1.68-1.06-3.42-1.06-1.41,0-2.62,.44-3.63,1.3-1.01,.87-1.51,1.9-1.51,3.1v18.74c0,1.14-.22,2.21-.65,3.22-.44,1.01-1.02,1.87-1.75,2.61s-1.59,1.3-2.57,1.71c-.98,.41-1.98,.61-3.02,.61h-.49c-1.14,0-2.2-.2-3.18-.61-.98-.41-1.83-.98-2.57-1.71-.73-.73-1.3-1.6-1.71-2.61-.41-1-.61-2.08-.61-3.22v-31.13c0-1.14,.2-2.2,.61-3.18,.41-.98,.98-1.83,1.71-2.57s1.59-1.3,2.57-1.71,2.04-.61,3.18-.61h.49c1.3,0,2.5,.33,3.59,.98,1.09,.65,1.79,1.33,2.12,2.04,.38-.38,.94-.77,1.67-1.18,.73-.41,1.53-.77,2.4-1.1,.87-.33,1.75-.6,2.65-.81,.9-.22,1.7-.33,2.4-.33,1.79,0,3.31,.12,4.56,.37,1.25,.24,2.34,.56,3.26,.94,.92,.38,1.72,.83,2.4,1.34,.68,.52,1.37,1.05,2.08,1.59,1.58-1.09,3.42-2.06,5.54-2.93,2.12-.87,4.07-1.3,5.87-1.3,4.29,0,7.8,.52,10.51,1.55,2.72,1.03,4.84,2.46,6.36,4.28,1.52,1.82,2.55,3.97,3.1,6.44,.54,2.47,.81,5.12,.81,7.95v19.4c0,2.39-.79,4.35-2.36,5.87Z"/><path d="M318.69,92.95h-.49c-2.38,0-4.43-.84-6.09-2.5-1.66-1.66-2.5-3.76-2.5-6.25v-19.4c0-.66-.2-1.36-.58-2.08-.32-.6-1.16-.91-2.49-.91s-2.33,.34-3.21,1.05c-.84,.67-1.24,1.49-1.24,2.51v18.83c0,2.55-.86,4.67-2.55,6.3-1.68,1.63-3.77,2.45-6.2,2.45h-.41c-1.21,0-2.36-.22-3.41-.66-1.05-.44-1.97-1.06-2.76-1.84-.78-.79-1.42-1.73-1.88-2.79-.47-1.07-.7-2.24-.7-3.46v-19.97c0-.57-.23-1.16-.69-1.75-.42-.54-1.44-.83-2.95-.83-1.27,0-2.33,.38-3.24,1.16-.87,.76-1.3,1.62-1.3,2.64v18.74c0,1.22-.24,2.38-.7,3.46-.46,1.07-1.1,2.01-1.88,2.79s-1.71,1.41-2.76,1.84c-1.05,.44-2.14,.66-3.25,.66h-.49c-1.21,0-2.36-.22-3.41-.66-1.05-.44-1.97-1.06-2.76-1.84-.79-.79-1.41-1.73-1.84-2.81-.43-1.07-.65-2.23-.65-3.44v-31.13c0-1.21,.22-2.36,.66-3.41,.44-1.05,1.06-1.97,1.84-2.76,.79-.79,1.72-1.41,2.76-1.84,1.05-.44,2.19-.66,3.41-.66h.49c1.41,0,2.72,.36,3.89,1.06,.87,.52,1.52,1.07,1.95,1.64,.34-.26,.76-.53,1.24-.79,.76-.42,1.59-.8,2.48-1.14,.88-.33,1.8-.61,2.72-.84,.94-.23,1.8-.34,2.55-.34,1.82,0,3.4,.13,4.68,.38,1.28,.25,2.41,.58,3.37,.97,.97,.4,1.82,.88,2.54,1.42,.57,.43,1.15,.88,1.74,1.33,1.52-1.01,3.3-1.93,5.29-2.75,2.18-.9,4.23-1.35,6.1-1.35,4.34,0,7.95,.53,10.73,1.59,2.8,1.06,5.02,2.56,6.6,4.45,1.58,1.89,2.66,4.14,3.22,6.69,.55,2.51,.83,5.22,.83,8.07v19.4c0,2.55-.86,4.67-2.55,6.3-1.68,1.63-3.74,2.45-6.12,2.45Zm-12.14-32.33c1.81,0,3,.52,3.54,1.54,.48,.9,.72,1.79,.72,2.65v19.4c0,2.19,.7,3.96,2.15,5.4,1.44,1.44,3.16,2.15,5.24,2.15h.49c2.09,0,3.82-.69,5.29-2.11h0c1.47-1.42,2.18-3.19,2.18-5.44v-19.4c0-2.76-.27-5.39-.8-7.82-.52-2.36-1.52-4.44-2.97-6.18-1.45-1.73-3.5-3.11-6.11-4.1-2.64-1-6.1-1.51-10.3-1.51-1.7,0-3.6,.42-5.64,1.26-2.07,.85-3.9,1.82-5.43,2.87l-.36,.25-.35-.27c-.71-.54-1.4-1.07-2.08-1.59-.63-.48-1.4-.91-2.27-1.27-.89-.36-1.95-.67-3.15-.9-1.21-.24-2.7-.36-4.45-.36-.65,0-1.41,.1-2.26,.31-.87,.21-1.74,.48-2.58,.79-.84,.31-1.62,.67-2.32,1.06-.68,.38-1.2,.74-1.54,1.08l-.61,.61-.36-.78c-.27-.59-.91-1.19-1.88-1.78-.99-.59-2.09-.89-3.28-.89h-.49c-1.06,0-2.05,.19-2.95,.57-.9,.37-1.7,.91-2.37,1.58-.67,.67-1.21,1.47-1.58,2.37-.38,.9-.57,1.89-.57,2.95v31.13c0,1.06,.19,2.07,.57,2.99,.37,.93,.91,1.74,1.58,2.41,.67,.67,1.47,1.21,2.37,1.58,.9,.38,1.89,.57,2.95,.57h.49c.95,0,1.88-.19,2.78-.57,.9-.38,1.7-.91,2.37-1.58s1.22-1.49,1.63-2.42c.4-.92,.6-1.93,.6-2.98v-18.74c0-1.37,.58-2.57,1.71-3.55,1.11-.96,2.47-1.45,4.02-1.45,1.95,0,3.23,.42,3.9,1.29,.62,.81,.94,1.65,.94,2.48v19.97c0,1.06,.2,2.06,.6,2.98,.4,.93,.95,1.74,1.63,2.42,.67,.67,1.47,1.21,2.37,1.58,.9,.38,1.89,.57,2.95,.57h.41c2.14,0,3.9-.69,5.37-2.11,1.47-1.42,2.18-3.19,2.18-5.44v-18.83c0-1.38,.57-2.54,1.69-3.44,1.08-.87,2.42-1.31,3.96-1.31Z"/></g><g id="i"><path class="cls-1" d="M362.7,34.16c0,1.3-.24,2.53-.73,3.67-.49,1.14-1.17,2.12-2.04,2.93-.87,.81-1.86,1.47-2.97,1.96-1.11,.49-2.27,.73-3.46,.73-1.3,0-2.51-.26-3.63-.77-1.11-.52-2.09-1.19-2.93-2.04-.84-.84-1.49-1.82-1.96-2.93-.46-1.11-.69-2.29-.69-3.55s.23-2.35,.69-3.46c.46-1.11,1.11-2.1,1.96-2.97,.84-.87,1.82-1.55,2.93-2.04,1.11-.49,2.32-.73,3.63-.73s2.53,.24,3.67,.73c1.14,.49,2.12,1.14,2.93,1.96,.81,.82,1.45,1.78,1.92,2.89,.46,1.11,.69,2.32,.69,3.63Zm-1.39,53.14c-.44,.98-1.02,1.85-1.75,2.61-.73,.76-1.59,1.36-2.57,1.79-.98,.43-2.04,.65-3.18,.65h-.57c-1.14,0-2.2-.2-3.18-.61-.98-.41-1.83-.98-2.57-1.71-.73-.73-1.32-1.6-1.75-2.61-.44-1-.65-2.08-.65-3.22v-30.4c0-1.14,.22-2.2,.65-3.18,.43-.98,1.02-1.83,1.75-2.57,.73-.73,1.59-1.3,2.57-1.71,.98-.41,2.04-.61,3.18-.61h.57c2.28,0,4.21,.77,5.79,2.32,1.58,1.55,2.36,3.46,2.36,5.75v30.4c0,1.09-.22,2.12-.65,3.1Z"/><path d="M353.82,92.95h-.57c-1.22,0-2.36-.22-3.41-.66-1.05-.44-1.97-1.05-2.76-1.84-.78-.78-1.42-1.72-1.88-2.79-.47-1.07-.7-2.24-.7-3.46v-30.4c0-1.22,.24-2.37,.7-3.42,.46-1.04,1.09-1.96,1.88-2.75,.79-.79,1.71-1.4,2.76-1.84,1.05-.44,2.19-.66,3.41-.66h.57c2.43,0,4.52,.84,6.21,2.49,1.69,1.66,2.54,3.74,2.54,6.17v30.4c0,1.16-.24,2.29-.7,3.34h0c-.46,1.04-1.09,1.98-1.87,2.78-.78,.81-1.71,1.46-2.76,1.92-1.05,.47-2.2,.7-3.42,.7Zm-.57-46.62c-1.06,0-2.05,.19-2.95,.57-.9,.38-1.7,.91-2.37,1.58-.68,.68-1.23,1.48-1.63,2.39-.4,.9-.6,1.88-.6,2.94v30.4c0,1.06,.2,2.06,.6,2.98,.4,.93,.95,1.75,1.63,2.42,.67,.67,1.47,1.21,2.37,1.58,.9,.38,1.89,.57,2.95,.57h.57c1.05,0,2.04-.2,2.93-.6,.9-.4,1.7-.96,2.38-1.66,.68-.7,1.23-1.52,1.64-2.44h0c.4-.9,.6-1.86,.6-2.85v-30.4c0-2.13-.71-3.87-2.18-5.32-1.47-1.45-3.23-2.15-5.37-2.15h-.57Zm.24-2.28c-1.39,0-2.69-.28-3.88-.83-1.17-.54-2.22-1.27-3.11-2.16-.89-.89-1.6-1.95-2.09-3.13-.49-1.18-.74-2.45-.74-3.77s.25-2.51,.74-3.69c.49-1.18,1.19-2.24,2.08-3.16,.89-.92,1.94-1.65,3.12-2.17,1.18-.52,2.49-.78,3.87-.78s2.69,.26,3.9,.78c1.21,.52,2.26,1.22,3.12,2.08,.87,.87,1.55,1.9,2.04,3.09,.49,1.18,.74,2.48,.74,3.86s-.26,2.69-.78,3.9c-.52,1.21-1.25,2.27-2.18,3.13-.92,.86-1.97,1.55-3.14,2.07-1.19,.52-2.43,.78-3.7,.78Zm0-18.5c-1.21,0-2.35,.23-3.39,.68-1.04,.45-1.96,1.1-2.74,1.91-.79,.81-1.4,1.75-1.83,2.79-.43,1.04-.65,2.12-.65,3.23,0,1.17,.22,2.28,.65,3.31,.43,1.04,1.04,1.96,1.83,2.74,.79,.79,1.72,1.43,2.76,1.92,1.03,.48,2.16,.72,3.37,.72,1.11,0,2.19-.23,3.22-.68,1.05-.46,1.99-1.08,2.81-1.84,.8-.76,1.44-1.67,1.9-2.73,.45-1.06,.68-2.21,.68-3.43s-.22-2.36-.65-3.4c-.43-1.04-1.03-1.94-1.79-2.7s-1.68-1.37-2.75-1.83c-1.06-.45-2.22-.69-3.43-.69Z"/></g><g id="S"><path class="cls-1" d="M438.08,71.73c0,3.59-.81,6.71-2.44,9.37-1.63,2.66-3.82,4.88-6.56,6.64-2.74,1.77-5.92,3.08-9.53,3.95-3.61,.87-7.38,1.3-11.29,1.3-3.53,0-6.74-.34-9.62-1.02-2.88-.68-5.43-1.53-7.66-2.57-2.23-1.03-4.13-2.12-5.7-3.26-1.58-1.14-2.85-2.17-3.83-3.1-.76-.76-1.36-1.67-1.79-2.73-.44-1.06-.65-2.13-.65-3.22,.11-1.52,.46-2.88,1.06-4.07,.54-1.03,1.39-1.98,2.53-2.85,1.14-.87,2.77-1.3,4.89-1.3,.92,0,1.94,.19,3.06,.57,1.11,.38,2.02,.95,2.73,1.71,.76,.54,1.62,1.1,2.57,1.67,.95,.57,2.06,1.1,3.34,1.59,1.28,.49,2.7,.9,4.28,1.22,1.58,.33,3.37,.49,5.38,.49,1.3,0,2.68-.08,4.12-.24,1.44-.16,2.77-.43,3.99-.81,1.22-.38,2.23-.84,3.02-1.39,.79-.54,1.18-1.22,1.18-2.04,0-1.03-.39-1.82-1.18-2.36-.79-.54-1.79-.94-3.02-1.18-1.22-.24-2.54-.39-3.95-.45-1.41-.05-2.72-.08-3.91-.08h-7.9c-2.34,0-4.71-.39-7.13-1.18-2.42-.79-4.6-1.97-6.56-3.55-1.96-1.57-3.56-3.56-4.81-5.95-1.25-2.39-1.87-5.19-1.87-8.39,0-3.59,.87-6.72,2.61-9.41,1.74-2.69,3.94-4.93,6.6-6.72,2.66-1.79,5.6-3.12,8.8-3.99,3.2-.87,6.28-1.3,9.21-1.3,3.42,0,6.65,.34,9.7,1.02,3.04,.68,5.7,1.6,7.99,2.77,2.28,1.17,4.09,2.57,5.42,4.2,1.33,1.63,2,3.4,2,5.3,0,1.14-.23,2.21-.69,3.22-.46,1.01-1.09,1.9-1.87,2.69-.79,.79-1.7,1.4-2.73,1.83-1.03,.44-2.09,.65-3.18,.65-.76,0-1.55-.11-2.36-.33-.81-.22-1.6-.6-2.36-1.14-.98-.54-1.86-1.03-2.65-1.47-.79-.43-1.62-.79-2.49-1.06-.87-.27-1.82-.47-2.85-.61-1.03-.13-2.28-.2-3.75-.2-1.14,0-2.34,.1-3.59,.29-1.25,.19-2.39,.48-3.42,.86-1.03,.38-1.87,.86-2.53,1.43s-.98,1.24-.98,2c0,.49,.38,.98,1.14,1.47,.76,.49,1.87,.73,3.34,.73h7.01c3.75,0,7.36,.3,10.84,.9,3.48,.6,6.56,1.68,9.25,3.26,2.69,1.58,4.84,3.72,6.44,6.44,1.6,2.72,2.4,6.19,2.4,10.43Z"/><path d="M408.26,93.6c-3.56,0-6.84-.35-9.75-1.03-2.91-.68-5.52-1.56-7.78-2.61-2.25-1.04-4.2-2.16-5.8-3.32-1.59-1.15-2.9-2.21-3.89-3.15-.83-.82-1.47-1.81-1.94-2.94-.46-1.12-.7-2.28-.7-3.45v-.04c.11-1.59,.49-3.04,1.12-4.3,.59-1.12,1.49-2.14,2.7-3.06,1.24-.95,3.01-1.43,5.25-1.43,.98,0,2.07,.2,3.25,.6,1.18,.4,2.17,1.02,2.93,1.83,.73,.52,1.56,1.06,2.48,1.61,.91,.55,2.01,1.07,3.25,1.54,1.24,.48,2.65,.88,4.19,1.2,2.52,.52,5.72,.64,9.31,.24,1.4-.16,2.7-.42,3.88-.79,1.16-.36,2.12-.8,2.85-1.31,.62-.43,.92-.93,.92-1.54,0-.83-.3-1.44-.92-1.87-.72-.49-1.66-.86-2.79-1.09-1.18-.24-2.48-.38-3.86-.44-1.42-.05-2.72-.08-3.89-.08h-7.9c-2.39,0-4.85-.41-7.32-1.21-2.48-.81-4.75-2.03-6.75-3.65-2.01-1.62-3.68-3.68-4.96-6.14-1.29-2.46-1.94-5.38-1.94-8.67,0-3.69,.91-6.96,2.7-9.74,1.77-2.75,4.05-5.06,6.77-6.9,2.7-1.82,5.72-3.19,8.98-4.07,3.24-.88,6.4-1.32,9.37-1.32,3.45,0,6.75,.35,9.83,1.03,3.08,.69,5.81,1.64,8.13,2.82,2.35,1.2,4.23,2.67,5.61,4.35,1.41,1.73,2.13,3.64,2.13,5.68,0,1.22-.25,2.39-.75,3.47-.49,1.07-1.16,2.03-2,2.86-.84,.84-1.82,1.5-2.92,1.96-1.87,.79-3.83,.91-5.93,.35-.87-.23-1.72-.64-2.53-1.21-.94-.52-1.8-.99-2.56-1.42l-.06-.03c-.75-.41-1.55-.75-2.38-1.01-.83-.26-1.76-.46-2.75-.59-1.01-.13-2.24-.2-3.67-.2-1.1,0-2.28,.09-3.5,.28-1.21,.18-2.32,.46-3.31,.83-.96,.35-1.75,.8-2.34,1.31-.52,.46-.77,.96-.77,1.55,0,.26,.32,.61,.87,.96,.66,.42,1.67,.64,3.02,.64h7.01c3.76,0,7.44,.3,10.94,.91,3.53,.61,6.71,1.73,9.45,3.33,2.77,1.62,5,3.86,6.65,6.65,1.65,2.8,2.49,6.41,2.49,10.74,0,3.68-.85,6.94-2.53,9.68-1.67,2.73-3.94,5.03-6.75,6.83-2.79,1.79-6.06,3.15-9.72,4.03-3.65,.88-7.49,1.32-11.43,1.32Zm-28.66-16.47c0,1,.21,2,.61,2.97,.4,.98,.96,1.83,1.66,2.53,.94,.89,2.21,1.91,3.76,3.04,1.54,1.12,3.43,2.19,5.6,3.2,2.18,1.01,4.72,1.86,7.55,2.53,2.82,.67,6.01,1,9.48,1,3.84,0,7.59-.43,11.15-1.29,3.53-.85,6.67-2.15,9.35-3.87,2.65-1.71,4.8-3.88,6.37-6.45,1.56-2.55,2.36-5.6,2.36-9.06,0-4.11-.78-7.52-2.32-10.13-1.54-2.61-3.64-4.71-6.22-6.23-2.61-1.53-5.66-2.6-9.05-3.19-3.43-.59-7.04-.89-10.74-.89h-7.01c-1.6,0-2.8-.27-3.67-.83-.95-.61-1.42-1.26-1.42-1.97,0-.94,.4-1.76,1.18-2.45,.7-.62,1.62-1.13,2.71-1.54,1.06-.39,2.25-.69,3.54-.89,1.28-.19,2.51-.29,3.68-.29,1.48,0,2.77,.07,3.83,.21,1.06,.14,2.05,.35,2.95,.63,.91,.28,1.78,.66,2.6,1.11l.06,.03c.77,.43,1.64,.91,2.59,1.43l.06,.04c.7,.5,1.43,.85,2.17,1.05,1.84,.49,3.53,.39,5.16-.3,.96-.4,1.81-.98,2.54-1.71s1.32-1.58,1.75-2.52c.42-.92,.64-1.92,.64-2.97,0-1.75-.63-3.41-1.86-4.92-1.27-1.56-3.03-2.92-5.23-4.04-2.22-1.14-4.86-2.05-7.84-2.72-2.99-.67-6.21-1-9.57-1-2.86,0-5.91,.43-9.05,1.28-3.13,.85-6.03,2.16-8.62,3.91-2.58,1.74-4.75,3.94-6.43,6.55-1.67,2.58-2.51,5.63-2.51,9.09,0,3.09,.61,5.83,1.81,8.12,1.2,2.31,2.77,4.24,4.65,5.76,1.89,1.52,4.03,2.68,6.37,3.44,2.35,.76,4.68,1.15,6.95,1.15h7.9c1.18,0,2.5,.03,3.93,.08,1.44,.06,2.8,.21,4.05,.46,1.29,.26,2.38,.69,3.24,1.28,.96,.66,1.44,1.62,1.44,2.86,0,1.02-.48,1.87-1.44,2.53-.84,.58-1.91,1.07-3.18,1.46-1.25,.39-2.63,.67-4.1,.84-3.71,.42-7.04,.29-9.68-.25-1.6-.33-3.07-.75-4.37-1.25-1.31-.5-2.46-1.05-3.44-1.64-.96-.58-1.84-1.15-2.61-1.7l-.09-.08c-.63-.68-1.47-1.21-2.48-1.55-1.05-.36-2.01-.54-2.86-.54-1.97,0-3.5,.4-4.53,1.18-1.07,.81-1.86,1.71-2.36,2.65-.55,1.1-.89,2.39-.99,3.82Z"/></g><g id="w"><path class="cls-1" d="M514.12,52.98c0,.44-.04,.86-.12,1.26-.08,.41-.18,.77-.29,1.1v-.16c-.71,2.39-1.43,4.8-2.16,7.21-.73,2.42-1.48,4.85-2.24,7.29-.81,2.72-1.67,5.47-2.57,8.27-.9,2.8-1.73,5.5-2.49,8.11-.49,1.63-1.49,3.03-3.02,4.2-1.52,1.17-3.23,1.75-5.13,1.75h-3.18c-1.9,0-3.6-.61-5.09-1.83-1.49-1.22-2.51-2.73-3.06-4.52l-2.77-9.7-2.69,9.7c-.49,1.79-1.48,3.3-2.97,4.52-1.49,1.22-3.25,1.83-5.26,1.83h-2.93c-1.96,0-3.68-.6-5.17-1.79-1.49-1.19-2.49-2.61-2.97-4.24l-9.29-30.56c-.11-.33-.2-.72-.29-1.18-.08-.46-.12-.86-.12-1.18,0-1.09,.22-2.1,.65-3.06,.43-.95,1-1.76,1.71-2.44,.71-.68,1.52-1.22,2.44-1.63,.92-.41,1.87-.61,2.85-.61h.65c1.85,0,3.52,.56,5.01,1.67,1.49,1.11,2.51,2.57,3.06,4.36,.6,1.9,1.13,3.75,1.59,5.54,.46,1.79,.94,3.4,1.43,4.81l2.69-9.86c.49-1.85,1.53-3.33,3.14-4.44,1.6-1.11,3.3-1.67,5.09-1.67h3.1c1.9,0,3.61,.58,5.13,1.75,1.52,1.17,2.53,2.68,3.02,4.52,.27,1.03,.52,1.93,.73,2.69,.22,.76,.42,1.51,.61,2.24,.19,.73,.41,1.48,.65,2.24,.24,.76,.5,1.66,.77,2.69l2.93-10.59c.49-1.79,1.51-3.23,3.06-4.32,1.55-1.09,3.25-1.63,5.09-1.63h.65c.98,0,1.93,.19,2.85,.57,.92,.38,1.75,.9,2.49,1.55,.73,.65,1.32,1.45,1.75,2.4,.43,.95,.65,2,.65,3.14Z"/><path d="M496.11,92.62h-3.18c-2.04,0-3.88-.66-5.47-1.97-1.58-1.29-2.68-2.91-3.25-4.81l-2.19-7.66-2.12,7.65c-.52,1.9-1.59,3.53-3.17,4.83-1.6,1.31-3.49,1.97-5.64,1.97h-2.93c-2.09,0-3.95-.65-5.55-1.92-1.58-1.26-2.65-2.79-3.17-4.53l-9.29-30.56c-.11-.34-.21-.75-.3-1.25-.09-.49-.13-.93-.13-1.29,0-1.17,.24-2.28,.71-3.31,.46-1.01,1.08-1.9,1.84-2.63,.75-.73,1.64-1.31,2.62-1.75,1-.44,2.04-.66,3.09-.66h.65c1.97,0,3.77,.6,5.37,1.79,1.59,1.19,2.69,2.76,3.27,4.67,.6,1.9,1.13,3.78,1.6,5.57,.26,1.01,.53,1.96,.8,2.86l2.16-7.92c.52-1.98,1.66-3.58,3.37-4.78,1.7-1.18,3.53-1.78,5.44-1.78h3.1c2.03,0,3.88,.63,5.5,1.88,1.62,1.25,2.71,2.88,3.23,4.84,.27,1.03,.52,1.93,.73,2.68,.22,.78,.43,1.54,.62,2.26,.18,.71,.4,1.45,.64,2.21,.07,.2,.13,.42,.2,.64l2.36-8.52c.52-1.92,1.63-3.48,3.29-4.65,1.64-1.15,3.47-1.74,5.44-1.74h.65c1.05,0,2.08,.21,3.08,.62,.98,.41,1.88,.96,2.66,1.65,.79,.7,1.43,1.58,1.9,2.6,.47,1.03,.71,2.17,.71,3.39,0,.47-.04,.94-.13,1.38-.09,.43-.19,.82-.3,1.17l-.44,1.34c-.57,1.92-1.14,3.83-1.71,5.7-.71,2.34-1.46,4.79-2.24,7.3-.81,2.69-1.67,5.48-2.57,8.28-.9,2.81-1.73,5.53-2.48,8.09-.53,1.75-1.61,3.26-3.23,4.5-1.62,1.24-3.47,1.88-5.5,1.88Zm-14.11-18.87l3.36,11.74c.5,1.66,1.47,3.08,2.86,4.22,1.4,1.14,2.94,1.7,4.71,1.7h3.18c1.76,0,3.36-.55,4.77-1.63,1.41-1.08,2.36-2.39,2.81-3.89,.75-2.57,1.59-5.3,2.49-8.12,.89-2.79,1.76-5.57,2.56-8.26,.78-2.51,1.53-4.96,2.24-7.3,.71-2.35,1.44-4.78,2.16-7.21l.29-.99c.06-.34,.09-.69,.09-1.04,0-1.05-.2-2.02-.6-2.89-.4-.87-.94-1.61-1.61-2.21-.68-.6-1.46-1.09-2.32-1.44-.85-.35-1.73-.53-2.62-.53h-.65c-1.71,0-3.31,.51-4.75,1.52-1.44,1.01-2.37,2.32-2.82,3.99l-3.53,12.73-.57-2.14c-.28-1.04-.53-1.91-.77-2.66-.25-.78-.47-1.54-.66-2.27-.18-.71-.39-1.46-.61-2.23-.22-.76-.46-1.66-.74-2.7-.45-1.7-1.39-3.12-2.8-4.2-1.41-1.08-3.01-1.63-4.77-1.63h-3.1c-1.66,0-3.26,.53-4.75,1.56-1.5,1.04-2.44,2.38-2.9,4.1l-3.2,11.74-.63-1.83c-.49-1.43-.98-3.06-1.44-4.85-.46-1.77-.99-3.62-1.58-5.51-.5-1.66-1.46-3.03-2.84-4.06-1.38-1.03-2.95-1.55-4.65-1.55h-.65c-.89,0-1.77,.19-2.61,.56-.86,.38-1.62,.89-2.27,1.51-.65,.63-1.18,1.39-1.58,2.26-.4,.87-.6,1.81-.6,2.81,0,.29,.04,.65,.11,1.08,.08,.44,.17,.8,.26,1.09l9.3,30.58c.45,1.51,1.39,2.83,2.77,3.94,1.38,1.1,2.99,1.66,4.8,1.66h2.93c1.86,0,3.5-.57,4.88-1.7,1.39-1.14,2.32-2.56,2.78-4.22l3.26-11.75Z"/></g><g id="a"><path class="cls-1" d="M572.96,87.29c-.44,.98-1.02,1.85-1.75,2.61-.73,.76-1.59,1.36-2.57,1.79s-2.04,.65-3.18,.65h-.33c-1.3,0-2.51-.3-3.63-.9-1.11-.6-2.05-1.36-2.81-2.28-2.01,.98-4.24,1.82-6.68,2.53-2.44,.71-5.03,1.06-7.74,1.06s-5.01-.44-7.21-1.31c-2.2-.87-4.1-2.04-5.7-3.51-1.6-1.47-2.84-3.15-3.71-5.03-.87-1.88-1.3-3.85-1.3-5.92,0-3.6,.75-6.37,2.24-8.34,1.49-1.96,3.37-3.4,5.62-4.33,2.25-.93,4.71-1.47,7.38-1.63,2.66-.16,5.19-.25,7.58-.25h8.39c0-.37-.04-.77-.12-1.19-.08-.43-.34-.81-.77-1.16-.44-.35-1.11-.62-2.04-.84-.92-.21-2.2-.32-3.83-.32-1.36,0-2.62,.17-3.79,.52-1.17,.34-2.28,.72-3.34,1.11-1.06,.4-2.09,.77-3.1,1.11-1.01,.35-2.02,.52-3.06,.52-1.14,0-2.21-.11-3.22-.32-1.01-.22-1.9-.59-2.69-1.14-.79-.54-1.41-1.23-1.87-2.07-.46-.84-.69-1.88-.69-3.12,0-1.41,.39-2.66,1.18-3.77,.79-1.11,1.82-2.08,3.1-2.92,1.28-.84,2.72-1.54,4.32-2.11,1.6-.57,3.22-1.03,4.85-1.38,1.63-.35,3.16-.61,4.6-.77,1.44-.16,2.68-.24,3.71-.24,3.37,0,6.45,.38,9.25,1.14,2.8,.76,5.2,2.02,7.21,3.79,2.01,1.77,3.57,4.07,4.69,6.93,1.11,2.85,1.67,6.4,1.67,10.64v17.36c0,1.09-.22,2.12-.65,3.1Zm-26.32-12.71c-1.03,0-1.85,.07-2.44,.2-.6,.14-1.06,.33-1.39,.57s-.54,.5-.65,.77c-.11,.27-.16,.57-.16,.9s.05,.64,.16,.94c.11,.3,.33,.57,.65,.82,.33,.24,.79,.45,1.39,.61,.6,.16,1.41,.24,2.44,.24s2.15-.12,3.34-.37c1.19-.24,2.32-.58,3.38-1.02,1.06-.43,2.04-.98,2.93-1.63,.9-.65,1.59-1.36,2.08-2.12l-11.74,.08Z"/><path d="M544.27,93.35c-2.67,0-5.17-.45-7.43-1.35-2.26-.89-4.24-2.12-5.89-3.63-1.65-1.52-2.95-3.27-3.85-5.22-.9-1.95-1.36-4.03-1.36-6.18,0-3.71,.8-6.64,2.36-8.7,1.55-2.04,3.53-3.56,5.87-4.52,.95-.39,1.95-.72,2.98-.98-.98-.03-1.92-.14-2.8-.33-1.08-.23-2.06-.65-2.9-1.23-.86-.59-1.56-1.36-2.06-2.27-.51-.92-.77-2.07-.77-3.41,0-1.53,.44-2.91,1.29-4.12,.83-1.16,1.92-2.2,3.26-3.07,1.31-.86,2.81-1.59,4.45-2.17,1.62-.57,3.27-1.04,4.92-1.4,1.63-.35,3.2-.62,4.66-.78,1.46-.16,2.73-.25,3.78-.25,3.4,0,6.57,.39,9.41,1.16,2.87,.78,5.38,2.1,7.45,3.92,2.07,1.82,3.71,4.23,4.85,7.16,1.14,2.91,1.71,6.56,1.71,10.85v17.36c0,1.16-.24,2.29-.7,3.34h0c-.46,1.04-1.09,1.98-1.87,2.78-.78,.81-1.71,1.46-2.76,1.92-1.05,.47-2.2,.7-3.42,.7h-.33c-1.4,0-2.71-.33-3.91-.97-1.03-.55-1.93-1.25-2.68-2.07-1.93,.91-4.07,1.7-6.36,2.36-2.49,.72-5.15,1.08-7.91,1.08Zm4.89-30.32c-2.36,0-4.9,.08-7.54,.24-2.58,.16-5,.69-7.18,1.59-2.15,.88-3.95,2.27-5.37,4.14-1.41,1.84-2.12,4.53-2.12,7.97,0,1.97,.42,3.88,1.25,5.67,.83,1.8,2.03,3.43,3.57,4.84,1.54,1.41,3.4,2.56,5.52,3.4,2.12,.84,4.47,1.27,6.99,1.27,2.65,0,5.19-.35,7.58-1.04,2.4-.69,4.61-1.53,6.59-2.49l.43-.21,.3,.36c.71,.86,1.59,1.58,2.63,2.13,1.02,.55,2.15,.83,3.34,.83h.33c1.05,0,2.04-.2,2.94-.6,.9-.4,1.7-.96,2.38-1.66,.68-.7,1.23-1.52,1.64-2.44,.4-.9,.6-1.86,.6-2.85v-17.36c0-4.14-.55-7.65-1.63-10.42-1.07-2.75-2.6-5-4.52-6.69-1.93-1.7-4.28-2.93-6.97-3.66-2.74-.74-5.79-1.12-9.09-1.12-1,0-2.23,.08-3.64,.24-1.42,.16-2.95,.42-4.55,.76-1.6,.34-3.2,.8-4.77,1.36-1.55,.55-2.96,1.24-4.19,2.05-1.21,.79-2.2,1.72-2.94,2.77-.72,1.01-1.07,2.13-1.07,3.43,0,1.14,.21,2.09,.62,2.83,.41,.75,.98,1.38,1.69,1.86,.72,.49,1.55,.85,2.48,1.04,.96,.21,2,.31,3.09,.31,.96,0,1.92-.16,2.86-.48,.97-.33,2-.7,3.08-1.11,1.07-.4,2.2-.78,3.38-1.13,1.22-.36,2.55-.54,3.96-.54,1.66,0,3,.11,3.96,.33,1.02,.24,1.76,.55,2.28,.95,.55,.44,.88,.95,.99,1.51,.09,.46,.13,.9,.13,1.31v.6h-8.99Zm1.63-3.5c-1.29,0-2.51,.17-3.62,.49-1.15,.34-2.26,.71-3.3,1.1-.95,.36-1.87,.69-2.74,.99,.14-.01,.27-.02,.41-.03,2.67-.16,5.23-.25,7.62-.25h7.76c-.02-.16-.04-.32-.07-.48-.05-.28-.24-.54-.56-.8-.36-.29-.97-.53-1.8-.72-.88-.2-2.12-.3-3.7-.3Zm-4.16,20.7c-1.1,0-1.95-.09-2.6-.27-.68-.18-1.2-.42-1.59-.71-.42-.32-.71-.68-.86-1.09-.13-.36-.2-.74-.2-1.14s.07-.78,.21-1.12c.15-.37,.43-.72,.85-1.03,.4-.3,.92-.52,1.61-.68,.64-.15,1.51-.22,2.58-.22l12.84-.09-.6,.93c-.53,.82-1.28,1.59-2.23,2.28-.93,.68-1.96,1.25-3.06,1.7-1.08,.45-2.26,.8-3.49,1.05-1.23,.25-2.39,.38-3.46,.38Zm0-5.05c-.98,0-1.76,.06-2.31,.19-.51,.12-.9,.27-1.16,.47-.23,.17-.39,.35-.45,.52-.08,.2-.12,.42-.12,.67s.04,.5,.13,.73c.07,.19,.22,.37,.45,.54,.26,.2,.66,.37,1.18,.51,.54,.15,1.31,.22,2.29,.22s2.07-.12,3.22-.35c1.16-.24,2.26-.57,3.27-.99,1.01-.41,1.96-.94,2.81-1.56,.45-.33,.85-.67,1.19-1.03l-10.49,.07Z"/></g><g id="p"><path class="cls-1" d="M641.41,68.55c0,3.21-.52,6.26-1.55,9.17-1.03,2.91-2.61,5.47-4.73,7.7-2.12,2.23-4.8,4.01-8.03,5.34-3.23,1.33-7.05,2-11.45,2-1.3,0-2.6-.08-3.87-.24-1.28-.16-2.49-.46-3.63-.9v11c0,1.09-.22,2.12-.65,3.1-.44,.98-1.02,1.83-1.75,2.57s-1.59,1.32-2.57,1.75c-.98,.43-2.04,.65-3.18,.65h-.41c-1.14,0-2.2-.2-3.18-.61-.98-.41-1.83-.98-2.57-1.71s-1.3-1.59-1.71-2.57c-.41-.98-.61-2.04-.61-3.18V52.98c0-1.14,.2-2.2,.61-3.18,.41-.98,.98-1.83,1.71-2.57,.73-.73,1.59-1.3,2.57-1.71,.98-.41,2.04-.61,3.18-.61h.49c.92,0,1.68,.1,2.28,.29,.6,.19,1.1,.44,1.51,.73,.41,.3,.76,.63,1.06,.98,.3,.35,.58,.69,.86,1.02,.71-.38,1.41-.77,2.12-1.18,.71-.41,1.44-.79,2.2-1.14,.76-.35,1.6-.64,2.53-.86,.92-.22,1.93-.33,3.02-.33,4.4,0,8.22,.67,11.45,2,3.23,1.33,5.91,3.11,8.03,5.34,2.12,2.23,3.69,4.8,4.73,7.7,1.03,2.91,1.55,5.94,1.55,9.09Zm-16.87,0c0-1.03-.18-2.01-.53-2.93-.35-.92-.9-1.75-1.63-2.49-.73-.73-1.66-1.32-2.77-1.75-1.11-.43-2.43-.65-3.95-.65-1.79,0-3.41,.44-4.85,1.3-1.44,.87-2.54,1.96-3.3,3.26-.11,.11-.2,.49-.29,1.14-.08,.65-.12,1.41-.12,2.28,0,.71,.04,1.36,.12,1.96,.08,.6,.26,1.09,.53,1.47,.71,1.3,1.74,2.35,3.1,3.14,1.36,.79,2.96,1.18,4.81,1.18,3.04,0,5.28-.79,6.72-2.36,1.44-1.58,2.16-3.42,2.16-5.54Z"/><path d="M600.01,111.28h-.41c-1.22,0-2.36-.22-3.41-.66-1.05-.44-1.97-1.06-2.76-1.84s-1.41-1.71-1.84-2.76c-.44-1.05-.66-2.19-.66-3.41V52.98c0-1.21,.22-2.36,.66-3.41,.44-1.05,1.06-1.98,1.84-2.76s1.71-1.4,2.76-1.84,2.19-.66,3.41-.66h.49c.98,0,1.81,.11,2.46,.31,.66,.21,1.22,.49,1.68,.82,.44,.33,.83,.69,1.16,1.07,.19,.22,.37,.44,.54,.65,.55-.3,1.11-.62,1.67-.94,.71-.41,1.46-.8,2.25-1.17,.79-.37,1.68-.67,2.64-.9,.97-.23,2.03-.34,3.15-.34,4.46,0,8.39,.69,11.68,2.04,3.3,1.36,6.07,3.2,8.23,5.48,2.17,2.28,3.8,4.94,4.86,7.91,1.05,2.96,1.58,6.08,1.58,9.29s-.53,6.41-1.58,9.37c-1.06,2.97-2.69,5.64-4.86,7.91-2.17,2.28-4.94,4.12-8.23,5.48-3.29,1.35-7.22,2.04-11.68,2.04-1.33,0-2.65-.08-3.95-.25-1.02-.13-2.01-.35-2.95-.65v10.16c0,1.16-.24,2.29-.7,3.34-.46,1.04-1.1,1.97-1.88,2.75-.78,.78-1.7,1.41-2.75,1.88-1.05,.47-2.2,.7-3.42,.7Zm-.41-65.77c-1.06,0-2.05,.19-2.95,.56-.9,.38-1.7,.91-2.37,1.58-.67,.67-1.21,1.47-1.58,2.37-.37,.9-.56,1.89-.56,2.95v49.63c0,1.06,.19,2.05,.57,2.95,.38,.9,.91,1.7,1.58,2.37s1.47,1.21,2.37,1.58c.9,.38,1.89,.57,2.95,.57h.41c1.05,0,2.04-.2,2.94-.6,.91-.4,1.71-.95,2.39-1.63,.68-.68,1.22-1.48,1.63-2.39,.4-.9,.6-1.86,.6-2.85v-11.87l.81,.31c1.09,.42,2.27,.71,3.49,.86,1.24,.16,2.52,.24,3.8,.24,4.3,0,8.08-.66,11.22-1.95,3.14-1.29,5.77-3.04,7.82-5.2,2.05-2.16,3.6-4.67,4.6-7.49,1-2.83,1.51-5.85,1.51-8.97s-.51-6.06-1.51-8.89c-1-2.81-2.55-5.33-4.6-7.49-2.05-2.15-4.68-3.9-7.82-5.2-3.15-1.29-6.92-1.95-11.22-1.95-1.03,0-2,.1-2.88,.31-.88,.21-1.69,.48-2.41,.82-.75,.35-1.47,.72-2.15,1.12-.72,.42-1.44,.82-2.14,1.19l-.43,.23-.31-.37c-.27-.33-.56-.66-.85-1.02-.27-.31-.59-.61-.96-.88-.35-.26-.8-.48-1.34-.65-.54-.17-1.24-.26-2.1-.26h-.49Zm16.05,31.54c-1.95,0-3.67-.42-5.11-1.26-1.44-.83-2.55-1.96-3.31-3.34-.31-.45-.52-1.02-.61-1.7-.08-.62-.13-1.31-.13-2.04,0-.89,.04-1.68,.13-2.36,.11-.87,.23-1.22,.39-1.42,.81-1.36,1.98-2.52,3.48-3.42,1.53-.92,3.26-1.39,5.16-1.39,1.59,0,2.99,.23,4.17,.69,1.19,.47,2.19,1.1,2.98,1.89,.79,.79,1.38,1.69,1.77,2.69,.38,.99,.57,2.05,.57,3.15,0,2.26-.78,4.26-2.32,5.95-1.55,1.7-3.96,2.56-7.17,2.56Zm-7.68-11.38c-.02,.07-.09,.28-.16,.84-.08,.62-.12,1.37-.12,2.21,0,.68,.04,1.31,.12,1.87,.07,.5,.21,.9,.42,1.2l.04,.06c.65,1.2,1.61,2.18,2.87,2.9,1.26,.73,2.77,1.1,4.51,1.1,2.85,0,4.97-.73,6.28-2.17,1.35-1.48,2-3.16,2-5.14,0-.95-.17-1.87-.49-2.72-.32-.84-.83-1.61-1.49-2.28-.67-.67-1.53-1.21-2.57-1.62-1.04-.4-2.3-.61-3.73-.61-1.67,0-3.2,.41-4.54,1.22-1.35,.81-2.39,1.84-3.09,3.05l-.05,.08Z"/></g></g></g></g></svg>