<?xml version="1.0" encoding="UTF-8"?><svg id="_イヤー_2" xmlns="http://www.w3.org/2000/svg" viewBox="0 0 303.24 315.77"><defs><style>.cls-1{fill:#fbff9c;}.cls-2{fill:#abe2ff;}</style></defs><g id="Data-info"><g id="Mark"><g id="Yellow_02"><path id="Surface" class="cls-1" d="M121.6,1.77c-16.58,0-30.02,13.44-30.02,30.02s13.44,30.02,30.02,30.02h0c46.42,0,84.06,37.74,84.06,84.3h0c0,20.99-12.74,38.99-30.9,46.65-.4,.19-.81,.36-1.23,.5-1.22,.42-2.53,.65-3.9,.65-2.4,0-4.64-.71-6.52-1.92,19.41,13.27,45.92,13.27,65.58-1.83h0c39.78-30.55,47.27-87.57,16.72-127.36h0C216.88,25.69,172.03,1.77,121.6,1.77Z"/><path id="Outline" d="M194.64,203.53c-11.33,0-22.67-3.34-32.52-10.08-.8-.55-1.01-1.64-.47-2.44,.54-.81,1.62-1.03,2.44-.51,2.6,1.69,5.95,2.08,8.87,1.08,.36-.12,.71-.27,1.05-.43,18.18-7.67,29.88-25.34,29.88-45.04,0-45.51-36.91-82.53-82.28-82.53-8.49,0-16.48-3.31-22.48-9.31-6-6-9.31-13.99-9.31-22.48,0-17.53,14.26-31.79,31.79-31.79,49.42,0,95.06,22.49,125.22,61.71,.02,.02,.04,.05,.05,.07,31.03,40.54,23.37,98.69-17.06,129.76l-.03,.02c-10.37,7.96-22.74,11.97-35.14,11.97Zm-21.92-8.2c17.88,7.95,38.93,5.68,54.9-6.58l.05-.04c38.91-29.92,46.24-85.91,16.35-124.84l-.02-.02C214.51,25.53,169.9,3.54,121.6,3.54c-15.58,0-28.25,12.67-28.25,28.25s12.67,28.25,28.25,28.25c47.33,0,85.83,38.61,85.83,86.07,0,21.13-12.55,40.08-31.98,48.28-.39,.18-.86,.38-1.34,.54-.45,.16-.91,.29-1.38,.39Z"/></g><g id="Blue_02"><path id="Surface-2" class="cls-2" d="M181.64,313.99c16.58,0,30.02-13.44,30.02-30.02s-13.44-30.02-30.02-30.02h0c-46.42,0-84.06-37.74-84.06-84.3h0c0-20.99,12.74-38.99,30.9-46.65,.4-.19,.81-.36,1.23-.5,1.22-.42,2.53-.65,3.9-.65,2.4,0,4.64,.71,6.52,1.92-19.41-13.27-45.92-13.27-65.58,1.83h0c-39.78,30.55-47.27,87.57-16.72,127.36h0c28.54,37.11,73.39,61.03,123.82,61.03Z"/><path id="Outline-2" d="M181.64,315.77c-49.41,0-95.05-22.49-125.22-61.7h0v-.02c-31.11-40.5-23.46-98.74,17.03-129.84l.03-.02c19.84-15.21,47.01-15.97,67.64-1.87,.8,.55,1.01,1.64,.48,2.44-.54,.81-1.62,1.03-2.44,.51-2.61-1.69-5.96-2.09-8.87-1.08-.36,.12-.71,.27-1.05,.43-18.18,7.67-29.88,25.34-29.88,45.04,0,45.51,36.91,82.53,82.28,82.53,8.49,0,16.48,3.31,22.48,9.31,6,6,9.31,13.99,9.31,22.48,0,17.53-14.26,31.79-31.79,31.79Zm-122.42-63.88h0c29.49,38.35,74.11,60.34,122.41,60.34,15.58,0,28.25-12.67,28.25-28.25s-12.67-28.25-28.25-28.25c-47.33,0-85.83-38.61-85.83-86.07,0-21.13,12.55-40.08,31.98-48.28,.39-.19,.86-.38,1.34-.54,.45-.16,.91-.29,1.38-.39-17.88-7.95-38.93-5.68-54.9,6.58-.02,.02-.04,.03-.07,.05-38.89,29.92-46.22,85.89-16.33,124.82h0Z"/></g><g id="Yellow_01"><path id="Surface-3" class="cls-1" d="M245.54,62.96c-.04-.06-.09-.11-.13-.17-6.06-7.89-4.57-19.2,3.32-25.25,7.89-6.06,19.2-4.57,25.25,3.32,44.77,58.31,33.8,141.87-24.5,186.64h0c-3.88,2.76-5.35,3.42-7.46,5.1,2.06-1.67,4.69-2.67,7.55-2.67,6.63,0,12.01,5.38,12.01,12.01,0,3.77-1.74,7.14-4.46,9.34h0c-38.28,30.94-94.4,24.99-125.34-13.29h0c-14.08-17.42-15.93-40.75-6.67-59.61,5.8-12.12,18.18-20.5,32.52-20.5,13.26,0,24.02,10.75,24.02,24.02,0,4.8-2.81,8.94-6.88,10.86-.4,.19-.81,.36-1.23,.5-1.22,.42-2.53,.65-3.9,.65-2.4,0-4.64-.71-6.52-1.92,19.41,13.27,45.92,13.27,65.58-1.83h0c39.78-30.55,47.27-87.57,16.72-127.36"/><path id="Outline-3" d="M275.4,39.78c-3.22-4.19-7.87-6.88-13.11-7.57-5.25-.69-10.43,.7-14.62,3.92-4.19,3.22-6.88,7.87-7.57,13.11-.69,5.24,.7,10.43,3.91,14.62v.02h.01c29.9,38.94,22.56,94.92-16.35,124.84-.02,.01-.03,.02-.05,.04-15.97,12.26-37.02,14.53-54.9,6.58,.47-.11,.93-.24,1.38-.39,.48-.17,.96-.36,1.41-.57,4.8-2.27,7.9-7.16,7.9-12.46,0-14.22-11.57-25.79-25.79-25.79s-27.87,8.44-34.11,21.49c-9.83,20.02-7.13,44.16,6.89,61.5,17.94,22.19,44.25,33.72,70.78,33.72,20.07,0,40.26-6.6,57.05-20.17,3.25-2.63,5.12-6.54,5.12-10.72,0-6.99-5.23-12.78-11.98-13.66,58.27-45.45,69.1-129.78,24.01-188.5Zm-26.93,186.27s-.05,.03-.07,.05c-1.78,1.27-3.01,2.06-4.1,2.77-1.11,.71-2,1.29-3.03,2.08-.12,.09-.23,.18-.35,.27-.76,.61-.88,1.72-.27,2.49,.61,.76,1.72,.88,2.48,.28,.1-.08,.21-.16,.31-.24,1.78-1.34,3.89-2.04,6.14-2.04,5.64,0,10.24,4.59,10.24,10.24,0,3.1-1.39,6.01-3.8,7.96-37.46,30.28-92.57,24.43-122.86-13.03-13.15-16.27-15.68-38.92-6.45-57.73,5.66-11.84,17.8-19.49,30.92-19.49,12.27,0,22.25,9.98,22.25,22.25,0,3.94-2.3,7.58-5.87,9.26-.34,.16-.69,.3-1.05,.43-2.92,1-6.27,.6-8.87-1.08h0c-.18-.12-.36-.24-.54-.38-2.63-1.95-4.14-4.95-4.14-8.22,0-.98-.79-1.77-1.77-1.77s-1.77,.79-1.77,1.77c0,4.34,2.08,8.48,5.57,11.07,.22,.17,.45,.32,.68,.47h.01c20.64,14.11,47.83,13.35,67.66-1.88l.03-.02c40.4-31.05,48.08-89.13,17.18-129.61-.02-.03-.04-.05-.06-.08l-.1-.13h0v-.02c-2.65-3.44-3.79-7.7-3.23-12,.57-4.3,2.77-8.12,6.21-10.76,3.44-2.64,7.71-3.78,12.01-3.22,4.3,.57,8.12,2.77,10.76,6.21,44.09,57.42,33.26,140-24.12,184.11Z"/></g><g id="Blue_01"><path id="Surface-4" class="cls-2" d="M57.7,252.81c.04,.06,.09,.11,.13,.17,6.06,7.89,4.57,19.2-3.32,25.25-7.89,6.06-19.2,4.57-25.25-3.32C-15.52,216.6-4.55,133.04,53.75,88.26h0c3.88-2.76,5.35-3.42,7.46-5.1-2.06,1.67-4.69,2.67-7.55,2.67-6.63,0-12.01-5.38-12.01-12.01,0-3.77,1.74-7.14,4.46-9.34h0c38.28-30.94,94.4-24.99,125.34,13.29h0c14.08,17.42,15.93,40.75,6.67,59.61-5.8,12.12-18.18,20.5-32.52,20.5-13.26,0-24.02-10.75-24.02-24.02,0-4.8,2.81-8.94,6.88-10.86,.4-.19,.81-.36,1.23-.5,1.22-.42,2.53-.65,3.9-.65,2.4,0,4.64,.71,6.52,1.92-19.41-13.27-45.92-13.27-65.58,1.83h0c-39.78,30.55-47.27,87.57-16.72,127.36"/><path id="Outline-4" d="M172.84,76.67l-.03-.04c-31.51-38.95-88.84-45.02-127.81-13.52-3.25,2.63-5.12,6.54-5.12,10.72,0,6.99,5.23,12.78,11.98,13.66C-6.41,132.94-17.24,217.27,27.85,275.98c3.89,5.07,9.77,7.73,15.72,7.73,4.2,0,8.44-1.33,12.02-4.08,4.19-3.22,6.88-7.87,7.57-13.11,.69-5.24-.7-10.43-3.91-14.62l-.11-.14c-29.78-38.92-22.43-94.81,16.42-124.7,.02-.02,.05-.03,.07-.05,15.97-12.26,37.01-14.53,54.9-6.58-.47,.11-.93,.24-1.38,.39-.48,.16-.95,.36-1.41,.57-4.8,2.27-7.9,7.16-7.9,12.46,0,14.22,11.57,25.79,25.79,25.79s27.87-8.44,34.11-21.49c9.83-20.02,7.13-44.16-6.88-61.5Zm3.7,59.95c-5.66,11.84-17.8,19.49-30.92,19.49-12.27,0-22.25-9.98-22.25-22.25,0-3.94,2.3-7.58,5.87-9.26,.34-.16,.69-.3,1.05-.43,2.91-1,6.27-.6,8.87,1.08h0c.19,.12,.37,.25,.54,.38,2.63,1.95,4.14,4.95,4.14,8.23,0,.98,.79,1.77,1.77,1.77s1.77-.79,1.77-1.77c0-4.34-2.08-8.48-5.57-11.07-.22-.17-.45-.32-.69-.48h0l-.02-.02h-.01c-20.62-14.08-47.78-13.32-67.6,1.89l-.03,.02c-40.5,31.1-48.14,89.35-17.04,129.84l.03,.04c2.62,3.44,3.76,7.69,3.19,11.97-.57,4.3-2.77,8.12-6.21,10.76-7.1,5.45-17.32,4.11-22.77-3C-13.44,216.4-2.61,133.81,54.75,89.73c.03-.02,.07-.05,.1-.07,1.78-1.26,3.01-2.06,4.1-2.76,1.11-.71,2.01-1.29,3.04-2.09,.12-.09,.23-.18,.34-.27,.76-.61,.88-1.72,.27-2.49-.61-.76-1.72-.88-2.48-.28-.1,.08-.2,.16-.3,.24-1.78,1.34-3.9,2.05-6.14,2.05-5.64,0-10.24-4.59-10.24-10.24,0-3.1,1.39-6.01,3.8-7.96,37.45-30.27,92.54-24.43,122.86,13.03h0c13.15,16.27,15.68,38.92,6.45,57.73Z"/></g></g></g></svg>